<svg width="18" height="17" viewBox="0 0 18 17" fill="none" xmlns="http://www.w3.org/2000/svg">
<g clip-path="url(#clip0_454_967)">
<path d="M13.455 12.7075C12.1729 13.6305 10.6118 14.1418 9 14.1667C3.75 14.1667 0.75 8.5 0.75 8.5C1.68292 6.85801 2.97685 5.42343 4.545 4.2925M7.425 3.00333C7.94125 2.8892 8.4698 2.83215 9 2.83333C14.25 2.83333 17.25 8.5 17.25 8.5C16.7947 9.30439 16.2518 10.0617 15.63 10.7596M10.59 10.0017C10.384 10.2104 10.1356 10.3779 9.85961 10.494C9.58362 10.6102 9.28568 10.6726 8.98357 10.6777C8.68146 10.6827 8.38137 10.6302 8.10121 10.5233C7.82104 10.4165 7.56654 10.2574 7.35288 10.0556C7.13923 9.85382 6.97079 9.61346 6.85763 9.34886C6.74447 9.08426 6.68889 8.80084 6.69423 8.51552C6.69956 8.23019 6.76568 7.9488 6.88866 7.68814C7.01163 7.42747 7.18894 7.19287 7.41 6.99833" stroke="#7C7C7C" stroke-width="2" stroke-linecap="round" stroke-linejoin="round"/>
<path d="M0.75 0.708344L17.25 16.2917" stroke="#7C7C7C" stroke-width="2" stroke-linecap="round" stroke-linejoin="round"/>
</g>
<defs>
<clipPath id="clip0_454_967">
<rect width="18" height="17" fill="white"/>
</clipPath>
</defs>
</svg>
