<svg width="94" height="156" viewBox="0 0 94 156" fill="none" xmlns="http://www.w3.org/2000/svg">
<path d="M89.2436 153.397H4.82845C3.32104 153.397 2.19055 152.261 2.19055 150.745V4.89096C2.19055 3.37559 3.32104 2.23901 4.82845 2.23901H89.2436C90.751 2.23901 91.8815 3.37559 91.8815 4.89096V150.745C91.8815 152.261 90.751 153.397 89.2436 153.397Z" stroke="white" stroke-width="4" stroke-miterlimit="10"/>
<path d="M34.0434 13.1559H56.6757" stroke="white" stroke-width="4" stroke-miterlimit="10"/>
<path d="M62.5433 14.8355C63.4692 14.8355 64.2198 14.0835 64.2198 13.1559C64.2198 12.2283 63.4692 11.4764 62.5433 11.4764C61.6174 11.4764 60.8668 12.2283 60.8668 13.1559C60.8668 14.0835 61.6174 14.8355 62.5433 14.8355Z" stroke="white" stroke-width="4" stroke-miterlimit="10"/>
<path d="M47.036 144.16C50.971 144.16 54.161 140.964 54.161 137.022C54.161 133.079 50.971 129.884 47.036 129.884C43.101 129.884 39.911 133.079 39.911 137.022C39.911 140.964 43.101 144.16 47.036 144.16Z" stroke="white" stroke-width="4" stroke-miterlimit="10"/>
</svg>
