<svg width="180" height="53" viewBox="0 0 180 53" fill="none" xmlns="http://www.w3.org/2000/svg">
<path d="M24.08 0.702637L0.769226 12.1818V32.7305H24.08V0.7032V0.702637Z" fill="#0054A3"/>
<path d="M30.7115 52.2975L54.8258 39.6101L24.0789 32.7299L0.840922 32.7158L0.769226 45.2305L30.7115 52.2972V52.2975Z" fill="#B4E114"/>
<path d="M0.769226 27.7083V45.2291L24.0792 32.7299L0.769226 27.7083Z" fill="#0AA0D1"/>
<path d="M35.95 5.66211V28.0161H41.5772V16.1343L59.6626 28.6199V6.2665H53.835V18.148L35.95 5.66211ZM155.518 5.66211V28.0161H161.145V15.9328L179.231 28.6199V6.2665H173.604V18.148L155.518 5.66211ZM66.093 6.2665V28.0161H87.9971V22.9815H71.9209V19.1554H87.9971V14.7246H71.9209V10.8982H87.9971V6.2665H66.093ZM92.6194 6.2665L102.667 17.141L92.6194 28.0161H100.055L106.485 20.5645L112.916 28.0158H120.351L110.504 17.141L120.351 6.2665H112.916L106.486 13.7173L100.055 6.2665H92.6194ZM124.973 6.2665V28.0161H149.087V6.2665H124.973ZM130.6 11.5023H143.26V22.9815H130.6V11.5023Z" fill="black"/>
</svg>
