<svg width="181" height="138" viewBox="0 0 181 138" fill="none" xmlns="http://www.w3.org/2000/svg">
<path d="M178.951 2.65265H66.7918V109.71H178.951V2.65265Z" stroke="white" stroke-width="4" stroke-miterlimit="10"/>
<path d="M61.9364 2.65262H2.21521V135.2H61.9364V2.65262Z" stroke="white" stroke-width="4" stroke-miterlimit="10"/>
<path d="M32.3188 22.5812V75.8782" stroke="white" stroke-width="4" stroke-miterlimit="10"/>
<path d="M115.346 108.32V128.712" stroke="white" stroke-width="4" stroke-miterlimit="10"/>
<path d="M88.1555 128.711H138.651" stroke="white" stroke-width="4" stroke-miterlimit="10"/>
<path d="M32.8044 118.052C38.4357 118.052 43.0007 113.695 43.0007 108.32C43.0007 102.945 38.4357 98.5871 32.8044 98.5871C27.1732 98.5871 22.6081 102.945 22.6081 108.32C22.6081 113.695 27.1732 118.052 32.8044 118.052Z" stroke="white" stroke-width="4" stroke-miterlimit="10"/>
<path d="M32.3184 89.3182C34.1955 89.3182 35.7171 87.8657 35.7171 86.074C35.7171 84.2823 34.1955 82.8299 32.3184 82.8299C30.4413 82.8299 28.9196 84.2823 28.9196 86.074C28.9196 87.8657 30.4413 89.3182 32.3184 89.3182Z" stroke="white" stroke-width="4" stroke-miterlimit="10"/>
<path d="M119.715 12.385C120.788 12.385 121.658 11.555 121.658 10.5312C121.658 9.50738 120.788 8.67743 119.715 8.67743C118.643 8.67743 117.773 9.50738 117.773 10.5312C117.773 11.555 118.643 12.385 119.715 12.385Z" stroke="white" stroke-width="4" stroke-miterlimit="10"/>
</svg>
