<svg width="131" height="159" viewBox="0 0 131 159" fill="none" xmlns="http://www.w3.org/2000/svg">
<path d="M116.774 104.923C116.774 120.349 116.774 133.13 99.5688 133.13C82.364 133.13 82.364 120.79 82.364 104.923C82.364 89.0568 82.364 76.7162 99.5688 76.7162C114.623 76.7162 116.343 86.4124 116.774 99.1938" stroke="#FEFEFE" stroke-width="4" stroke-miterlimit="10"/>
<path d="M116.774 99.6643C116.774 101.43 116.774 103.195 116.774 105.401" stroke="#FEFEFE" stroke-width="4" stroke-miterlimit="10"/>
<path d="M12.5891 112.856C12.5891 110.212 12.5891 107.568 12.5891 104.923C12.5891 89.4975 12.5891 76.7162 29.7939 76.7162C46.9987 76.7162 46.9987 89.0568 46.9987 104.923C46.9987 120.79 46.9987 133.13 29.7939 133.13C15.5999 133.13 13.0192 124.756 12.5891 112.856Z" stroke="#FEFEFE" stroke-width="4" stroke-miterlimit="10"/>
<path d="M12.5892 115.919C12.1394 115.919 11.6896 115.919 11.2398 115.919C7.64139 115.919 4.94263 111.081 4.94263 104.923C4.94263 98.7655 7.64139 93.9273 11.2398 93.9273" stroke="#FEFEFE" stroke-width="4" stroke-miterlimit="10"/>
<path d="M11.6333 95.8396C12.1112 96.1583 12.5891 96.4771 12.5891 96.7958" stroke="#FEFEFE" stroke-width="4" stroke-miterlimit="10"/>
<path d="M8.76587 93.9273C9.99479 93.9273 10.8141 94.246 11.6333 94.8835" stroke="#FEFEFE" stroke-width="4" stroke-miterlimit="10"/>
<path d="M8.64634 94.0882C4.70358 85.7686 2.07507 74.8218 2.07507 65.1886C2.07507 30.1588 30.5506 2.13493 65.1593 2.13493C100.206 2.13493 128.243 30.5966 128.243 65.1886C128.243 77.8869 125.615 87.9579 120.796 95.8396" stroke="#FEFEFE" stroke-width="4" stroke-miterlimit="10"/>
<path d="M62.2917 149.863C62.2917 153.415 57.6656 156.078 51.7777 156.078C45.8898 156.078 41.2637 149.863 41.2637 149.863C41.2637 149.863 45.8898 143.648 51.7777 143.648C57.6656 143.648 62.2917 146.312 62.2917 149.863Z" stroke="#FEFEFE" stroke-width="4" stroke-miterlimit="10"/>
<path d="M41.2637 150.085C22.3445 152.311 15.7448 139.845 13.5449 120.7" stroke="#FEFEFE" stroke-width="4" stroke-miterlimit="10"/>
<path d="M115.818 115.039C116.678 115.479 117.538 115.919 118.398 115.919C121.839 115.919 124.42 111.081 124.42 104.923C124.42 98.7655 121.839 93.9273 118.398 93.9273" stroke="#FEFEFE" stroke-width="4" stroke-miterlimit="10"/>
</svg>
