<?xml version="1.0" encoding="utf-8"?>
<!-- Generator: Adobe Illustrator 28.1.0, SVG Export Plug-In . SVG Version: 6.00 Build 0)  -->
<svg version="1.1" id="Layer_1" xmlns="http://www.w3.org/2000/svg" xmlns:xlink="http://www.w3.org/1999/xlink" x="0px" y="0px"
	 viewBox="0 0 800 800" style="enable-background:new 0 0 800 800;" xml:space="preserve">
<style type="text/css">
	.st0{fill:#239D32;}
</style>
<path class="st0" d="M75,50c-6.5,0-12.3,2.5-17.4,7.4S50,68.2,50,75v650c0,6.8,2.5,12.6,7.6,17.6S68.5,750,75,750h650
	c6.5,0,12.3-2.5,17.4-7.4s7.6-10.8,7.6-17.6V75c0-6.8-2.5-12.6-7.6-17.6S731.5,50,725,50H75z M206.6,225h134.8l117.2,175V225h134.8
	v350H458.6L341.4,400v175H206.6V225z"/>
</svg>
