<svg width="52" height="52" viewBox="0 0 52 52" fill="none" xmlns="http://www.w3.org/2000/svg">
<g clip-path="url(#clip0_100_583)">
<path d="M52 26C52 11.6406 40.3594 0 26 0C11.6406 0 0 11.6406 0 26C0 38.9771 9.50777 49.7336 21.9375 51.6841V33.5156H15.3359V26H21.9375V20.2719C21.9375 13.7556 25.8192 10.1562 31.7581 10.1562C34.6018 10.1562 37.5781 10.6641 37.5781 10.6641V17.0625H34.2997C31.07 17.0625 30.0625 19.0668 30.0625 21.125V26H37.2734L36.1207 33.5156H30.0625V51.6841C42.4922 49.7336 52 38.9771 52 26Z" fill="#1877F2"/>
<path d="M36.1207 33.5156L37.2734 26H30.0625V21.125C30.0625 19.0689 31.07 17.0625 34.2997 17.0625H37.5781V10.6641C37.5781 10.6641 34.6029 10.1562 31.7581 10.1562C25.8192 10.1562 21.9375 13.7556 21.9375 20.2719V26H15.3359V33.5156H21.9375V51.6841C24.6295 52.1053 27.3705 52.1053 30.0625 51.6841V33.5156H36.1207Z" fill="white"/>
</g>
<defs>
<clipPath id="clip0_100_583">
<rect width="52" height="52" fill="white"/>
</clipPath>
</defs>
</svg>
