<svg width="52" height="52" viewBox="0 0 52 52" fill="none" xmlns="http://www.w3.org/2000/svg">
<circle cx="26" cy="26" r="26" fill="#FEE500"/>
<path d="M26.0753 12.5484C17.9861 12.5484 11.4626 17.7671 11.4626 24.1027C11.4626 28.2151 14.1764 31.8161 18.2471 33.8723L16.8693 39.0181C16.8433 39.0952 16.8394 39.178 16.8578 39.2573C16.8762 39.3365 16.9164 39.4091 16.9737 39.4669C17.0573 39.5406 17.1649 39.5814 17.2764 39.5817C17.3688 39.5742 17.4565 39.5377 17.5269 39.4773L23.4555 35.4797C24.3306 35.6005 25.2127 35.6632 26.0962 35.6675C34.1749 35.6675 40.7088 30.4488 40.7088 24.1027C40.7088 17.7567 34.154 12.5484 26.0753 12.5484Z" fill="#392020"/>
<path d="M16.5765 22.2761H14.9796C14.7816 22.2819 14.5861 22.2312 14.4159 22.13C14.3404 22.0826 14.2754 22.0201 14.2251 21.9465C14.1748 21.8729 14.1403 21.7896 14.1237 21.702C14.1186 21.6464 14.1186 21.5906 14.1237 21.5351C14.1187 21.4311 14.1389 21.3275 14.1825 21.233C14.2261 21.1385 14.2919 21.056 14.3742 20.9923C14.5561 20.8605 14.7758 20.7909 15.0004 20.7939H19.8122C20.0117 20.7869 20.2085 20.8416 20.3758 20.9505C20.4532 20.9958 20.5195 21.0577 20.57 21.1317C20.6206 21.2057 20.654 21.29 20.6681 21.3785C20.6731 21.4306 20.6731 21.483 20.6681 21.5351C20.673 21.6405 20.6528 21.7456 20.6093 21.8418C20.5658 21.9379 20.5 22.0223 20.4176 22.0882C20.24 22.2198 20.0225 22.2862 19.8017 22.2761H18.257V27.7663C18.2632 27.8833 18.2451 28.0002 18.2038 28.1098C18.1625 28.2194 18.0988 28.3193 18.0169 28.403C17.9383 28.483 17.8439 28.5458 17.7396 28.5871C17.6354 28.6284 17.5236 28.6475 17.4115 28.643C17.2155 28.6486 17.0236 28.586 16.8688 28.4657C16.7213 28.3482 16.6213 28.1813 16.587 27.9959C16.5766 27.9197 16.5766 27.8425 16.587 27.7663L16.5765 22.2761Z" fill="#FEE500"/>
<path d="M21.1289 21.201C21.1748 21.0293 21.2826 20.8805 21.4316 20.7835C21.5903 20.6935 21.7712 20.6501 21.9534 20.6582H22.3501C22.5435 20.6513 22.735 20.6983 22.9033 20.7939C23.0816 20.9138 23.2082 21.0964 23.2581 21.3054L25.3457 27.2026C25.3998 27.3565 25.4451 27.5134 25.4814 27.6724C25.4849 27.7385 25.4849 27.8046 25.4814 27.8707C25.4849 27.9724 25.4662 28.0737 25.4265 28.1674C25.3868 28.2612 25.3272 28.3451 25.2517 28.4134C25.1786 28.4884 25.0908 28.5475 24.9938 28.587C24.8969 28.6265 24.7928 28.6455 24.6881 28.643C24.5271 28.659 24.3654 28.6204 24.2291 28.5333C24.0928 28.4462 23.9897 28.3158 23.9366 28.1629L23.4982 26.8791H20.7531L20.3147 28.1629C20.2629 28.3188 20.1586 28.4518 20.0197 28.5393C19.8807 28.6269 19.7157 28.6635 19.5528 28.643C19.3763 28.6477 19.2034 28.5925 19.0622 28.4864C18.9247 28.3771 18.8319 28.2212 18.8013 28.0481C18.7957 27.9891 18.7957 27.9297 18.8013 27.8707C18.7834 27.7671 18.7834 27.6612 18.8013 27.5576C18.8013 27.4428 18.8743 27.3175 18.9161 27.2026L21.1289 21.201ZM22.1726 22.5684L21.1811 25.6997H23.1538L22.1726 22.5684Z" fill="#FEE500"/>
<path d="M25.7204 21.5352C25.7098 21.301 25.7923 21.0721 25.95 20.8985C26.0302 20.8177 26.1264 20.7545 26.2325 20.7131C26.3385 20.6718 26.4521 20.6531 26.5658 20.6584C26.7614 20.6561 26.9522 20.7185 27.1086 20.8358C27.2536 20.9583 27.3498 21.1286 27.38 21.3159C27.3902 21.3886 27.3902 21.4625 27.38 21.5352V27.0254H30.2503C30.4493 27.0228 30.6448 27.077 30.8139 27.1819C30.8899 27.2287 30.9552 27.2911 31.0056 27.3648C31.0559 27.4385 31.0902 27.522 31.1062 27.6098C31.1062 27.6098 31.1062 27.7142 31.1062 27.7664C31.1112 27.8704 31.091 27.9739 31.0474 28.0684C31.0038 28.1629 30.938 28.2455 30.8557 28.3092C30.6737 28.441 30.4541 28.5105 30.2294 28.5075H26.7015C26.4768 28.5219 26.2535 28.4634 26.0648 28.3405C25.8961 28.2144 25.7836 28.0269 25.7517 27.8187C25.7441 27.704 25.7441 27.5888 25.7517 27.4741L25.7204 21.5352Z" fill="#FEE500"/>
<path d="M31.2942 21.5353C31.288 21.3017 31.37 21.0744 31.5239 20.8986C31.6803 20.7564 31.881 20.6725 32.092 20.6611C32.3031 20.6497 32.5116 20.7114 32.6824 20.8359C32.8306 20.9572 32.9305 21.1275 32.9643 21.316C32.9694 21.389 32.9694 21.4623 32.9643 21.5353V24.0924L35.605 21.0446C35.7067 20.9406 35.8148 20.8431 35.9285 20.7524C36.0357 20.6886 36.1587 20.656 36.2834 20.6584C36.4658 20.6574 36.6442 20.712 36.7949 20.815C36.8658 20.8628 36.9264 20.9244 36.9731 20.9962C37.0197 21.0679 37.0514 21.1483 37.0662 21.2325C37.0704 21.2532 37.0704 21.2746 37.0662 21.2952C37.0612 21.3193 37.0612 21.3441 37.0662 21.3682C37.0659 21.4781 37.0371 21.586 36.9827 21.6814C36.9273 21.7824 36.8608 21.8769 36.7844 21.9631L35.0518 23.8628L37.1393 27.0985V27.2028C37.2477 27.3524 37.3322 27.518 37.3898 27.6935V27.7456C37.4019 27.8665 37.3844 27.9886 37.339 28.1013C37.2935 28.214 37.2214 28.314 37.1289 28.3927C36.9547 28.5243 36.7417 28.5942 36.5235 28.5911C36.3785 28.5971 36.2344 28.5646 36.106 28.4971C35.967 28.4038 35.8524 28.2786 35.772 28.1318L33.8306 25.0005L32.9016 25.9712V27.7142C32.9079 27.9478 32.8259 28.1751 32.672 28.3509C32.5895 28.4315 32.4914 28.4945 32.3837 28.5358C32.276 28.5771 32.161 28.5959 32.0457 28.5911C31.8531 28.5951 31.6651 28.5324 31.5134 28.4136C31.366 28.2961 31.2659 28.1294 31.2316 27.944C31.2213 27.8678 31.2213 27.7904 31.2316 27.7142L31.2942 21.5353Z" fill="#FEE500"/>
</svg>
