<?xml version="1.0" encoding="utf-8"?>
<!-- Generator: Adobe Illustrator 24.3.0, SVG Export Plug-In . SVG Version: 6.00 Build 0)  -->
<svg version="1.1" id="Layer_1" xmlns="http://www.w3.org/2000/svg" xmlns:xlink="http://www.w3.org/1999/xlink" x="0px" y="0px"
	 viewBox="0 0 16 16" style="enable-background:new 0 0 16 16;" xml:space="preserve">
<style type="text/css">
	.st0{fill:#FFADA2;}
</style>
<path class="st0" d="M6,2.2L7,4h0H4.8C4.1,4,3.5,3.4,3.5,2.8s0.6-1.2,1.2-1.2h0.1C5.3,1.5,5.7,1.7,6,2.2z M2,2.8
	C2,3.2,2.1,3.6,2.3,4H1C0.4,4,0,4.4,0,5v2c0,0.6,0.4,1,1,1h14c0.6,0,1-0.4,1-1V5c0-0.6-0.4-1-1-1h-1.3C13.9,3.6,14,3.2,14,2.8
	C14,1.2,12.8,0,11.2,0h-0.1c-1,0-1.9,0.5-2.4,1.4L8,2.7L7.2,1.4C6.7,0.5,5.8,0,4.8,0H4.8C3.2,0,2,1.2,2,2.8z M12.5,2.8
	c0,0.7-0.6,1.2-1.2,1.2H9h0L10,2.2c0.2-0.4,0.7-0.7,1.1-0.7h0.1C11.9,1.5,12.5,2.1,12.5,2.8z M1,9v5.5C1,15.3,1.7,16,2.5,16H7V9H1z
	 M9,16h4.5c0.8,0,1.5-0.7,1.5-1.5V9H9V16z"/>
</svg>
