<?xml version="1.0" encoding="utf-8"?>
<!-- Generator: Adobe Illustrator 24.3.0, SVG Export Plug-In . SVG Version: 6.00 Build 0)  -->
<svg version="1.1" id="Layer_1" xmlns="http://www.w3.org/2000/svg" xmlns:xlink="http://www.w3.org/1999/xlink" x="0px" y="0px"
	 viewBox="0 0 18 16" style="enable-background:new 0 0 18 16;" xml:space="preserve">
<style type="text/css">
	.st0{fill:#FFADA2;}
</style>
<path class="st0" d="M2,2C0.9,2,0,2.9,0,4v2c0,0.3,0.2,0.5,0.5,0.6c0.6,0.2,1,0.8,1,1.4s-0.4,1.2-1,1.4C0.2,9.5,0,9.7,0,10v2
	c0,1.1,0.9,2,2,2h14c1.1,0,2-0.9,2-2v-2c0-0.3-0.2-0.5-0.5-0.6c-0.6-0.2-1-0.8-1-1.4s0.4-1.2,1-1.4C17.8,6.5,18,6.3,18,6V4
	c0-1.1-0.9-2-2-2H2z M4,5.5v5C4,10.8,4.2,11,4.5,11h9c0.3,0,0.5-0.2,0.5-0.5v-5C14,5.2,13.8,5,13.5,5h-9C4.2,5,4,5.2,4,5.5z M3,5
	c0-0.6,0.4-1,1-1h10c0.6,0,1,0.4,1,1v6c0,0.6-0.4,1-1,1H4c-0.6,0-1-0.4-1-1V5z"/>
</svg>
