<?xml version="1.0" encoding="utf-8"?>
<!-- Generator: Adobe Illustrator 24.3.0, SVG Export Plug-In . SVG Version: 6.00 Build 0)  -->
<svg version="1.1" id="Layer_1" xmlns="http://www.w3.org/2000/svg" xmlns:xlink="http://www.w3.org/1999/xlink" x="0px" y="0px"
	 viewBox="0 0 20 16" style="enable-background:new 0 0 20 16;" xml:space="preserve">
<style type="text/css">
	.st0{fill:#FFADA2;}
</style>
<path class="st0" d="M3.5,0C2.7,0,2,0.7,2,1.5V3H0.5C0.2,3,0,3.2,0,3.5S0.2,4,0.5,4H2h6.5C8.8,4,9,4.2,9,4.5S8.8,5,8.5,5H2H1.5
	C1.2,5,1,5.2,1,5.5S1.2,6,1.5,6H2h5.5C7.8,6,8,6.2,8,6.5S7.8,7,7.5,7H2H0.5C0.2,7,0,7.2,0,7.5S0.2,8,0.5,8H2h4.5C6.8,8,7,8.2,7,8.5
	S6.8,9,6.5,9H2v4c0,1.7,1.3,3,3,3s3-1.3,3-3h4c0,1.7,1.3,3,3,3s3-1.3,3-3h1c0.6,0,1-0.4,1-1s-0.4-1-1-1V9V8V7.4c0-0.5-0.2-1-0.6-1.4
	L16,3.6C15.6,3.2,15.1,3,14.6,3H13V1.5C13,0.7,12.3,0,11.5,0H3.5z M17,7.4V8h-4V5h1.6L17,7.4z M5,11.5c0.8,0,1.5,0.7,1.5,1.5
	S5.8,14.5,5,14.5S3.5,13.8,3.5,13S4.2,11.5,5,11.5z M13.5,13c0-0.8,0.7-1.5,1.5-1.5s1.5,0.7,1.5,1.5s-0.7,1.5-1.5,1.5
	S13.5,13.8,13.5,13z"/>
</svg>
